<svg xmlns="http://www.w3.org/2000/svg" viewBox="0 0 1200 900">
  <rect width="1200" height="900" fill="#eff6e2"/>
  <rect x="136" y="146" width="928" height="608" rx="44" fill="#ffffff"/>
  <rect x="196" y="216" width="314" height="404" rx="32" fill="#d9e7bf"/>
  <circle cx="353" cy="338" r="82" fill="#88b364"/>
  <circle cx="353" cy="338" r="42" fill="#ffffff" fill-opacity="0.88"/>
  <path d="M272 492h134M272 552h184" stroke="#556f3d" stroke-width="24" stroke-linecap="round"/>
  <path d="M548 410h162" stroke="#5a8440" stroke-width="24" stroke-linecap="round"/>
  <path d="M686 354l72 56-72 56" fill="none" stroke="#5a8440" stroke-width="24" stroke-linecap="round" stroke-linejoin="round"/>
  <rect x="792" y="240" width="220" height="340" rx="30" fill="#eef6e1"/>
  <path d="M908 310v156" stroke="#556f3d" stroke-width="22" stroke-linecap="round"/>
  <path d="M908 310h72v54h-72" fill="none" stroke="#556f3d" stroke-width="22" stroke-linecap="round" stroke-linejoin="round"/>
  <circle cx="858" cy="482" r="36" fill="#f0d78f"/>
  <circle cx="916" cy="482" r="36" fill="#f0d78f"/>
  <rect x="318" y="668" width="564" height="34" rx="17" fill="#d9e7bf"/>
  <rect x="318" y="668" width="342" height="34" rx="17" fill="#88b364"/>
  <path d="M660 626v82M620 668l40 40 40-40" fill="none" stroke="#556f3d" stroke-width="20" stroke-linecap="round" stroke-linejoin="round"/>
</svg>
