<svg xmlns="http://www.w3.org/2000/svg" viewBox="0 0 1200 900">
  <rect width="1200" height="900" fill="#eff6e2"/>
  <rect x="170" y="220" width="280" height="360" rx="34" fill="#ffffff"/>
  <rect x="750" y="220" width="280" height="360" rx="34" fill="#ffffff"/>
  <rect x="230" y="300" width="160" height="42" rx="14" fill="#c7d9a7"/>
  <rect x="230" y="380" width="160" height="42" rx="14" fill="#c7d9a7"/>
  <rect x="230" y="460" width="120" height="42" rx="14" fill="#c7d9a7"/>
  <rect x="810" y="300" width="160" height="42" rx="14" fill="#88b364"/>
  <rect x="810" y="380" width="160" height="42" rx="14" fill="#88b364"/>
  <rect x="810" y="460" width="120" height="42" rx="14" fill="#88b364"/>
  <path d="M500 400h160" stroke="#5a8440" stroke-width="24" stroke-linecap="round"/>
  <path d="M626 350l60 50-60 50" fill="none" stroke="#5a8440" stroke-width="24" stroke-linecap="round" stroke-linejoin="round"/>
  <circle cx="600" cy="650" r="92" fill="#f0d78f"/>
  <path d="M600 604v92M554 650h92" stroke="#556f3d" stroke-width="20" stroke-linecap="round"/>
</svg>
